<?xml version="1.0" encoding="utf-8"?>
<!-- Generator: Adobe Illustrator 26.0.1, SVG Export Plug-In . SVG Version: 6.00 Build 0)  -->
<svg version="1.1" id="Layer_1" xmlns="http://www.w3.org/2000/svg" xmlns:xlink="http://www.w3.org/1999/xlink" x="0px" y="0px"
	 viewBox="0 0 1070.8 257.8" style="enable-background:new 0 0 1070.8 257.8;" xml:space="preserve">
<style type="text/css">
	.st0{fill:none;stroke:#DBB459;stroke-width:20;stroke-miterlimit:10;}
	.st1{fill:#DBB457;}
	.st2{fill:none;stroke:#DBB457;stroke-width:12;stroke-miterlimit:10;}
</style>
<line class="st0" x1="-1403.9" y1="555.3" x2="-1403.9" y2="555.3"/>
<g>
	<g>
		<path class="st1" d="M416.3,246.3h-33.4l-39.7-107.5h36.4l20.6,61.1l20.8-61.1h35L416.3,246.3z"/>
		<path class="st1" d="M493.3,201.5v-1.4c0-2.2-1.3-4.2-3.9-5.9c-2.6-1.8-6.7-2.6-12.4-2.6c-3.4,0-7,0.4-10.9,1.3
			c-3.9,0.9-7.4,2.1-10.4,3.8v-25.5c3.6-1.6,8.1-3,13.3-4.2c5.2-1.2,10.8-1.8,16.8-1.8c12.5,0,22.2,2.8,29.1,8.5
			c6.9,5.7,10.4,14.1,10.4,25.5v47.1h-32v-3.9c-1.3,1.3-3.6,2.5-7,3.6s-7.2,1.7-11.4,1.7c-7.6,0-14.2-2.1-19.9-6.4
			c-5.7-4.3-8.6-10.6-8.6-19c0-7.7,2.9-13.8,8.8-18.3s13-6.7,21.4-6.7c3.1,0,6.3,0.4,9.5,1.2C489.5,199.4,491.8,200.3,493.3,201.5z
			 M493.3,223.4v-3.5c-0.8-1.2-2-2.1-3.4-2.8c-1.5-0.7-3.1-1-5-1s-3.6,0.5-5.2,1.4s-2.5,2.3-2.5,4.2s0.8,3.3,2.5,4.2
			c1.6,0.9,3.4,1.4,5.2,1.4c1.9,0,3.5-0.3,5-1C491.4,225.5,492.5,224.6,493.3,223.4z"/>
		<path class="st1" d="M617.9,166.9v79.4h-33.1v-6.5c-2.2,2.5-5.2,4.4-8.9,6c-3.7,1.5-7.8,2.3-12.2,2.3c-8.5,0-15.3-2.6-20.4-7.9
			c-5.1-5.2-7.6-12.2-7.6-21v-52.3h33.2v43.9c0,2.3,0.6,4.3,1.8,6c1.2,1.7,3.1,2.5,5.7,2.5c1.9,0,3.6-0.6,5.2-1.8
			c1.6-1.2,2.6-2.7,3.1-4.7v-46h33.2V166.9z"/>
		<path class="st1" d="M662,132.6v113.7h-33.2V132.6H662z"/>
		<path class="st1" d="M714.7,192.4v53.9h-33.1v-53.9h-12.4v-25.6h12.4v-22.2h33.1v22.2h14.2v25.6H714.7z"/>
	</g>
</g>
<line class="st2" x1="77.9" y1="201.3" x2="306.6" y2="201.3"/>
<line class="st2" x1="83" y1="147.6" x2="83" y2="207.5"/>
<line class="st2" x1="992.8" y1="201.3" x2="764.1" y2="201.3"/>
<line class="st2" x1="987.6" y1="147.6" x2="987.6" y2="207.5"/>
<g>
	<path class="st1" d="M0.4,35.4V21.6h76.8v13.8H46.6v78.3H31V35.4H0.4z"/>
	<path class="st1" d="M104,27c0,1.2-0.3,2.4-0.8,3.5c-0.5,1.2-1.2,2.2-2,3c-0.9,0.9-1.9,1.5-3,1.9c-1.2,0.5-2.3,0.7-3.5,0.7
		c-1.2,0-2.4-0.2-3.5-0.7c-1.2-0.4-2.2-1.1-3-1.9c-0.9-0.8-1.5-1.8-2-3c-0.5-1.1-0.8-2.3-0.8-3.5c0-1.2,0.2-2.4,0.8-3.5
		c0.5-1.1,1.2-2.1,2-3c0.8-0.8,1.8-1.5,3-1.9c1.1-0.5,2.3-0.7,3.5-0.7c1.2,0,2.4,0.2,3.5,0.7c1.1,0.4,2.1,1.1,3,1.9
		c0.8,0.9,1.5,1.9,2,3C103.8,24.7,104,25.8,104,27z M102.2,47.1v66.6h-15V47.1H102.2z"/>
	<path class="st1" d="M140,59.6v54.1h-15V59.6h-13.5V47.1H125V29.3h15v17.9h15v12.5H140z"/>
	<path class="st1" d="M199.1,75.8v-4.6c0-1.9-0.4-3.6-1.1-5c-0.7-1.4-1.7-2.7-3.1-3.7c-1.4-1-3-1.8-4.9-2.3c-1.9-0.5-4-0.8-6.3-0.8
		c-1.8,0-3.5,0.1-5.1,0.4c-1.6,0.3-3.2,0.6-4.7,1.1c-1.6,0.5-3,1.1-4.4,1.9c-1.4,0.8-2.8,1.6-4.2,2.5V51.3c1.1-0.8,2.4-1.5,4-2.2
		c1.5-0.7,3.2-1.3,5.1-1.8c1.8-0.5,3.8-0.9,5.9-1.2c2.1-0.3,4.1-0.5,6.1-0.5c4.3,0,8.1,0.6,11.5,1.6c3.3,1.1,6.2,2.7,8.5,4.9
		c2.3,2.2,4.1,4.7,5.2,7.7c1.2,3,1.8,6.4,1.8,10.2v43.6h-14.4V110c-0.6,0.6-1.4,1.2-2.5,1.7c-1.1,0.6-2.3,1.1-3.8,1.6
		c-1.5,0.5-3.1,0.9-4.8,1.2c-1.7,0.3-3.5,0.5-5.2,0.5c-3.4,0-6.6-0.5-9.7-1.5c-3.1-1-5.7-2.4-7.9-4.4c-2.2-1.9-4-4.2-5.3-6.9
		c-1.3-2.7-1.9-5.7-1.9-9c0-3.1,0.6-6,1.9-8.6c1.3-2.6,3.1-4.9,5.5-6.8c2.3-1.9,5.1-3.4,8.3-4.4c3.2-1.1,6.6-1.6,10.2-1.6
		c1.4,0,2.9,0.1,4.4,0.4c1.5,0.3,3,0.6,4.4,0.9c1.4,0.4,2.6,0.8,3.8,1.3C197.5,74.8,198.4,75.3,199.1,75.8z M199.1,96v-5.5
		c-0.4-1-1.1-1.9-2-2.8c-0.9-0.8-2-1.6-3.1-2.2c-1.2-0.6-2.5-1-4-1.3c-1.5-0.3-2.9-0.5-4.4-0.5c-1.7,0-3.4,0.2-5,0.6
		c-1.6,0.4-3.1,1-4.5,1.7c-1.3,0.8-2.4,1.7-3.1,2.9s-1.1,2.6-1.1,4.2c0,1.6,0.4,3,1.1,4.3c0.8,1.3,1.8,2.2,3.1,3
		c1.4,0.8,2.9,1.3,4.5,1.7c1.7,0.4,3.3,0.6,5,0.6c1.5,0,3-0.1,4.4-0.4c1.4-0.3,2.8-0.8,4-1.4c1.2-0.6,2.2-1.3,3.1-2.2
		C198.1,98,198.7,97,199.1,96z"/>
	<path class="st1" d="M227.5,113.7V47.1h15v6.3c0.9-1.1,2-2.1,3.2-3.1c1.2-0.9,2.6-1.8,4.2-2.5c1.5-0.7,3.2-1.2,5-1.6
		c1.8-0.4,3.6-0.6,5.5-0.6c3.7,0,7,0.6,10,1.8c2.9,1.2,5.4,2.9,7.4,5c2,2.2,3.5,4.8,4.6,7.8c1.1,3.1,1.6,6.4,1.6,10.1v43.4h-15V72.9
		c0-2.1-0.3-4-0.8-5.6c-0.5-1.7-1.3-3.1-2.3-4.3c-1-1.2-2.4-2.1-4-2.8c-1.6-0.6-3.4-1-5.5-1c-1.6,0-3.1,0.3-4.6,0.8
		c-1.5,0.5-2.9,1.2-4.1,2.1c-1.3,0.9-2.3,2-3.2,3.4s-1.6,2.8-2,4.4v43.8H227.5z"/>
	<path class="st1" d="M313,108v31.2h-15V47.1h15v5.7c0.8-1,1.8-1.9,2.9-2.8c1.1-0.8,2.5-1.6,4-2.2c1.5-0.6,3.1-1.2,4.8-1.6
		c1.7-0.4,3.5-0.6,5.2-0.6c4.7,0,9,0.9,12.8,2.8c3.8,1.9,7.1,4.4,9.8,7.6c2.7,3.2,4.7,6.9,6.1,11.1c1.4,4.2,2.1,8.7,2.1,13.4
		c0,4.7-0.7,9.1-2.1,13.3c-1.4,4.2-3.4,7.9-6.1,11.1c-2.7,3.2-6,5.7-9.8,7.6c-3.9,1.8-8.1,2.8-12.8,2.8c-1.8,0-3.6-0.2-5.2-0.6
		c-1.7-0.4-3.3-0.9-4.8-1.6c-1.5-0.6-2.8-1.4-4-2.2C314.8,110,313.8,109,313,108z M313,67.8V93c0.6,1.3,1.4,2.5,2.4,3.6
		c1,1.1,2.1,2.1,3.4,2.9c1.3,0.8,2.7,1.4,4.1,1.8c1.4,0.4,2.9,0.6,4.4,0.6c2.8,0,5.3-0.5,7.6-1.6c2.3-1.1,4.2-2.6,5.9-4.5
		c1.6-2,2.8-4.2,3.7-6.8c0.8-2.6,1.3-5.4,1.3-8.5c0-3.1-0.4-5.9-1.3-8.6c-0.9-2.6-2.1-4.9-3.7-6.8c-1.6-2-3.6-3.5-5.9-4.5
		c-2.3-1.1-4.9-1.6-7.6-1.6c-1.5,0-3,0.2-4.4,0.6c-1.5,0.4-2.8,1-4.1,1.8c-1.3,0.8-2.5,1.8-3.4,2.9C314.4,65.3,313.6,66.5,313,67.8z
		"/>
	<path class="st1" d="M430.1,80.4c0,5-0.8,9.7-2.2,13.9c-1.5,4.3-3.7,8-6.5,11.1c-2.8,3.1-6.2,5.5-10.1,7.2
		c-3.9,1.7-8.2,2.5-12.8,2.5c-4.6,0-8.8-0.9-12.8-2.5c-3.9-1.7-7.3-4.1-10.1-7.2c-2.8-3.1-5-6.8-6.5-11.1c-1.5-4.3-2.2-8.9-2.2-13.9
		c0-5,0.8-9.6,2.2-14c1.5-4.3,3.7-8,6.5-11.1c2.9-3.1,6.2-5.5,10.1-7.2c3.9-1.7,8.1-2.6,12.8-2.6c4.6,0,8.9,0.9,12.8,2.6
		c3.9,1.7,7.3,4.1,10.1,7.2c2.9,3.1,5,6.8,6.5,11.1C429.4,70.8,430.1,75.4,430.1,80.4z M415.1,80.4c0-3.2-0.4-6.1-1.1-8.8
		c-0.7-2.6-1.8-4.9-3.2-6.9c-1.5-1.9-3.2-3.5-5.3-4.6c-2.1-1.1-4.5-1.7-7.1-1.7c-2.6,0-4.9,0.6-7,1.7c-2.1,1.1-3.9,2.6-5.3,4.6
		c-1.5,2-2.5,4.3-3.2,6.9c-0.7,2.7-1.1,5.6-1.1,8.8c0,3.2,0.3,6.1,1.1,8.8c0.7,2.7,1.8,4.9,3.2,6.9c1.4,2,3.2,3.5,5.3,4.6
		c2.1,1.1,4.4,1.6,7,1.6c2.6,0,5-0.5,7.1-1.6c2.1-1.1,3.9-2.6,5.3-4.6c1.4-2,2.5-4.2,3.2-6.9C414.8,86.6,415.1,83.6,415.1,80.4z"/>
	<path class="st1" d="M457.1,27c0,1.2-0.3,2.4-0.8,3.5c-0.5,1.2-1.2,2.2-2,3c-0.9,0.9-1.9,1.5-3,1.9c-1.2,0.5-2.3,0.7-3.5,0.7
		c-1.2,0-2.4-0.2-3.5-0.7c-1.2-0.4-2.2-1.1-3-1.9c-0.9-0.8-1.5-1.8-2-3c-0.5-1.1-0.8-2.3-0.8-3.5c0-1.2,0.2-2.4,0.8-3.5
		c0.5-1.1,1.2-2.1,2-3c0.8-0.8,1.8-1.5,3-1.9c1.1-0.5,2.3-0.7,3.5-0.7c1.2,0,2.4,0.2,3.5,0.7c1.1,0.4,2.1,1.1,3,1.9
		c0.8,0.9,1.5,1.9,2,3C456.9,24.7,457.1,25.8,457.1,27z M455.3,47.1v66.6h-15V47.1H455.3z"/>
	<path class="st1" d="M470.2,113.7V47.1h15v6.3c0.9-1.1,2-2.1,3.2-3.1c1.2-0.9,2.6-1.8,4.2-2.5c1.5-0.7,3.2-1.2,5-1.6
		c1.8-0.4,3.6-0.6,5.5-0.6c3.7,0,7,0.6,10,1.8c2.9,1.2,5.4,2.9,7.4,5c2,2.2,3.5,4.8,4.6,7.8c1,3.1,1.6,6.4,1.6,10.1v43.4h-15V72.9
		c0-2.1-0.2-4-0.8-5.6c-0.5-1.7-1.3-3.1-2.3-4.3c-1.1-1.2-2.4-2.1-4-2.8c-1.6-0.6-3.5-1-5.5-1c-1.6,0-3.2,0.3-4.7,0.8
		c-1.5,0.5-2.9,1.2-4.1,2.1c-1.3,0.9-2.3,2-3.2,3.4s-1.6,2.8-2,4.4v43.8H470.2z"/>
	<path class="st1" d="M563.6,59.6v54.1h-15V59.6h-13.5V47.1h13.5V29.3h15v17.9h15v12.5H563.6z"/>
	<path class="st1" d="M614.6,107.1V90.8c2.1,1.7,4.3,3.2,6.6,4.5c2.3,1.3,4.7,2.4,7.1,3.4c2.4,1,5,1.7,7.6,2.1
		c2.6,0.5,5.2,0.7,8,0.7s5.1-0.2,7.3-0.8c2.1-0.5,4-1.2,5.6-2.2c1.6-0.9,2.8-2.2,3.7-3.8c0.8-1.5,1.3-3.3,1.3-5.3
		c0-1.8-0.3-3.3-0.8-4.7c-0.6-1.3-1.4-2.4-2.5-3.4c-1.1-1-2.4-1.9-3.9-2.6s-3.4-1.6-5.7-2.5l-13.4-4.8c-3.3-1.2-6.3-2.5-8.8-4
		c-2.6-1.4-4.9-3.2-6.8-5.2c-1.9-2-3.4-4.5-4.4-7.3c-1.1-2.8-1.6-6-1.6-9.8c0-3.9,0.8-7.4,2.4-10.6c1.6-3.1,3.8-5.8,6.7-8
		c2.8-2.1,6.1-3.8,9.9-4.9c3.8-1.1,7.8-1.6,12.1-1.6c2.6,0,5.1,0.2,7.6,0.5c2.4,0.4,4.8,0.8,7.1,1.4c2.3,0.6,4.5,1.4,6.6,2.3
		c2.1,1,4,2,5.9,3.2v16.1c-2-1.5-4-2.9-6-4.1c-2-1.2-4.1-2.2-6.3-3.1c-2.2-0.9-4.5-1.6-7-2c-2.5-0.5-5-0.7-7.6-0.7
		c-2.4,0-4.6,0.2-6.5,0.7c-2,0.4-3.7,1.2-5.1,2.1c-1.5,1-2.6,2.1-3.4,3.5c-0.8,1.4-1.2,3-1.2,4.8c0,1.7,0.2,3.1,0.8,4.4
		c0.5,1.2,1.3,2.2,2.3,3.1s2.3,1.7,3.7,2.5c1.4,0.8,3.2,1.5,5.2,2.2l14.9,5.4c3.6,1.3,6.7,2.8,9.4,4.5c2.6,1.7,4.8,3.6,6.5,5.8
		c1.7,2.2,3,4.6,3.8,7.4c0.8,2.8,1.3,5.8,1.3,9.1c0,4.1-0.8,7.8-2.5,11c-1.6,3.3-4,6-7,8.2s-6.5,4-10.5,5.1c-4,1.1-8.4,1.7-13,1.7
		c-3,0-5.9-0.2-8.7-0.6c-2.8-0.4-5.5-1-8-1.7c-2.5-0.8-4.8-1.6-7-2.5C618.1,109.4,616.2,108.3,614.6,107.1z"/>
	<path class="st1" d="M711.7,139.2h-14.5l9.5-23.7l-25.8-68.4h16l17.4,49.1l17.1-49.1h15.5L711.7,139.2z"/>
	<path class="st1" d="M751.3,108.3V93c1.6,1.5,3.3,2.9,5.1,4.1c1.8,1.2,3.7,2.2,5.6,3.1c1.9,0.9,3.9,1.5,5.9,2
		c2,0.5,3.9,0.7,5.8,0.7c1.6,0,3.1-0.1,4.5-0.4c1.4-0.3,2.6-0.7,3.7-1.3c1.1-0.5,1.9-1.3,2.5-2.2c0.6-0.9,0.9-1.9,0.9-3.1
		c0-1.1-0.2-2-0.6-2.9c-0.4-0.8-1-1.5-1.8-2c-0.8-0.5-1.7-1-2.7-1.5c-1-0.5-2.2-0.9-3.8-1.4l-7.2-2.2c-2.9-0.9-5.5-1.9-7.6-3.1
		c-2.2-1.1-4.1-2.5-5.6-4c-1.6-1.5-2.7-3.4-3.5-5.6c-0.8-2.1-1.2-4.6-1.2-7.4c0-3,0.6-5.7,1.9-8.2c1.2-2.4,3-4.5,5.2-6.3
		c2.2-1.7,4.9-3.1,8-4c3.1-0.9,6.4-1.4,9.9-1.4c1.9,0,3.8,0.1,5.6,0.4c1.8,0.3,3.5,0.6,5.2,1.1c1.7,0.5,3.3,1.1,4.8,1.9
		s2.9,1.6,4.3,2.5v15.1c-1.5-1.3-3-2.5-4.5-3.5s-3.1-2-4.7-2.7c-1.7-0.8-3.4-1.3-5.2-1.7c-1.8-0.4-3.7-0.6-5.6-0.6
		c-1.5,0-2.9,0.1-4.2,0.4c-1.3,0.3-2.4,0.8-3.4,1.4c-1,0.6-1.7,1.3-2.2,2.2c-0.6,0.9-0.8,1.8-0.8,2.9c0,1.1,0.2,2,0.5,2.8
		c0.3,0.8,0.9,1.4,1.6,2c0.7,0.6,1.5,1,2.5,1.5c1,0.4,2.3,0.9,3.9,1.4l8.7,2.7c2.8,0.9,5.2,1.9,7.3,3.1c2.1,1.2,3.9,2.6,5.3,4.2
		c1.4,1.6,2.5,3.4,3.2,5.5c0.7,2.1,1.1,4.3,1.1,6.8c0,3.2-0.7,6.1-2,8.5c-1.3,2.5-3.2,4.6-5.5,6.4c-2.4,1.8-5.2,3.1-8.4,4
		c-3.2,0.9-6.7,1.4-10.3,1.4c-2.1,0-4.2-0.2-6.3-0.5c-2.1-0.3-4.1-0.8-6.1-1.3c-2-0.6-3.8-1.3-5.5-2.2
		C754.1,110.4,752.6,109.4,751.3,108.3z"/>
	<path class="st1" d="M833.2,59.6v54.1h-15V59.6h-13.5V47.1h13.5V29.3h15v17.9h15v12.5H833.2z"/>
	<path class="st1" d="M905.6,109.4c-1.4,1-2.9,1.9-4.5,2.6c-1.6,0.8-3.3,1.4-5,1.9c-1.8,0.5-3.6,0.8-5.6,1.1c-1.9,0.2-4,0.3-6.1,0.3
		c-4.8,0-9.2-0.8-13.3-2.4c-4-1.6-7.6-3.9-10.5-6.9c-3-3-5.2-6.6-6.8-10.8c-1.6-4.2-2.4-8.9-2.4-14.1c0-5.1,0.8-9.8,2.2-14.2
		s3.6-8.1,6.4-11.3c2.7-3.2,6-5.6,9.8-7.3c3.8-1.7,7.8-2.6,12.2-2.6c4.5,0,8.5,0.8,12.1,2.3c3.5,1.6,6.5,3.8,8.8,6.7
		c2.3,2.9,4.1,6.4,5.3,10.4c1.2,4,1.8,8.5,1.8,13.4v5.4h-44c0.3,3.2,1,6,2.1,8.3c1.1,2.4,2.6,4.3,4.4,5.8c1.8,1.5,3.9,2.6,6.3,3.4
		c2.3,0.8,4.9,1.1,7.6,1.1c1.9,0,3.6-0.1,5.2-0.4c1.6-0.2,3.2-0.6,4.7-1.1c1.5-0.5,3-1.1,4.5-1.9s3-1.7,4.6-2.8V109.4z M882.2,58.2
		c-1.7,0-3.4,0.3-5,0.8c-1.6,0.6-3.1,1.4-4.4,2.5c-1.4,1.1-2.6,2.6-3.6,4.4c-1,1.8-1.8,4-2.3,6.5h29c-0.1-2-0.5-3.9-1.1-5.6
		c-0.7-1.7-1.6-3.2-2.7-4.5c-1.2-1.2-2.5-2.2-4.2-2.9C886.2,58.6,884.3,58.2,882.2,58.2z"/>
	<path class="st1" d="M969.8,54.5c1.2-1.4,2.5-2.6,3.8-3.8c1.3-1.1,2.8-2,4.5-2.8c1.6-0.8,3.4-1.3,5.3-1.7c1.9-0.4,3.9-0.6,6.1-0.6
		c3.4,0,6.4,0.6,9.1,1.7c2.6,1.2,4.9,2.8,6.8,5c1.9,2.2,3.3,4.8,4.3,7.8c0.9,3.1,1.4,6.5,1.4,10.3v43.4h-15v-41c0-2.1-0.2-4-0.7-5.6
		c-0.4-1.6-1.1-3.1-2-4.3c-0.9-1.2-2.1-2.1-3.5-2.8c-1.4-0.6-3-1-4.8-1c-1.4,0-2.7,0.2-4,0.6c-1.3,0.4-2.4,1-3.5,1.9
		c-1.1,0.9-2,1.9-2.8,3.1c-0.8,1.3-1.3,2.7-1.6,4.3v44.7h-15v-41c0-2.1-0.2-4-0.7-5.6c-0.5-1.6-1.1-3.1-2-4.3
		c-0.9-1.2-2.1-2.1-3.5-2.8c-1.4-0.6-3-1-4.8-1c-1.4,0-2.7,0.2-4,0.6c-1.3,0.4-2.4,1-3.5,1.9c-1.1,0.9-2,1.9-2.8,3.1
		c-0.8,1.3-1.3,2.7-1.6,4.3v44.7h-15V47.1h15v5.6c0.8-1.1,1.8-2.1,2.9-2.9c1.1-0.8,2.4-1.6,3.8-2.2c1.4-0.6,2.9-1.1,4.7-1.4
		c1.7-0.3,3.5-0.5,5.2-0.5s3.6,0.2,5.3,0.7c1.7,0.4,3.4,1.1,4.9,1.9c1.5,0.8,2.9,1.7,4.1,2.8C967.9,52,968.9,53.2,969.8,54.5z"/>
	<path class="st1" d="M1022.2,108.3V93c1.6,1.5,3.3,2.9,5.1,4.1c1.8,1.2,3.7,2.2,5.6,3.1c1.9,0.9,3.9,1.5,5.9,2
		c2,0.5,3.9,0.7,5.8,0.7c1.6,0,3.1-0.1,4.5-0.4c1.4-0.3,2.6-0.7,3.7-1.3c1.1-0.5,1.9-1.3,2.5-2.2c0.6-0.9,0.9-1.9,0.9-3.1
		c0-1.1-0.2-2-0.6-2.9c-0.4-0.8-1-1.5-1.8-2c-0.8-0.5-1.7-1-2.7-1.5c-1-0.5-2.2-0.9-3.8-1.4l-7.2-2.2c-2.9-0.9-5.5-1.9-7.6-3.1
		c-2.2-1.1-4.1-2.5-5.6-4c-1.6-1.5-2.7-3.4-3.5-5.6c-0.8-2.1-1.2-4.6-1.2-7.4c0-3,0.6-5.7,1.9-8.2c1.2-2.4,3-4.5,5.2-6.3
		c2.2-1.7,4.9-3.1,8-4c3.1-0.9,6.4-1.4,9.9-1.4c1.9,0,3.8,0.1,5.6,0.4c1.8,0.3,3.5,0.6,5.2,1.1c1.7,0.5,3.3,1.1,4.8,1.9
		s2.9,1.6,4.3,2.5v15.1c-1.5-1.3-3-2.5-4.5-3.5s-3.1-2-4.7-2.7c-1.7-0.8-3.4-1.3-5.2-1.7c-1.8-0.4-3.7-0.6-5.6-0.6
		c-1.5,0-2.9,0.1-4.2,0.4c-1.3,0.3-2.4,0.8-3.4,1.4c-1,0.6-1.7,1.3-2.2,2.2c-0.6,0.9-0.8,1.8-0.8,2.9c0,1.1,0.2,2,0.5,2.8
		c0.3,0.8,0.9,1.4,1.6,2c0.7,0.6,1.5,1,2.5,1.5c1,0.4,2.3,0.9,3.9,1.4l8.7,2.7c2.8,0.9,5.2,1.9,7.3,3.1c2.1,1.2,3.9,2.6,5.3,4.2
		c1.4,1.6,2.5,3.4,3.2,5.5c0.7,2.1,1.1,4.3,1.1,6.8c0,3.2-0.7,6.1-2,8.5c-1.3,2.5-3.2,4.6-5.5,6.4c-2.4,1.8-5.2,3.1-8.4,4
		c-3.2,0.9-6.7,1.4-10.3,1.4c-2.1,0-4.2-0.2-6.3-0.5c-2.1-0.3-4.1-0.8-6.1-1.3c-2-0.6-3.8-1.3-5.5-2.2
		C1025,110.4,1023.5,109.4,1022.2,108.3z"/>
</g>
</svg>
