<?xml version="1.0" encoding="UTF-8"?>
<svg id="Layer_1" data-name="Layer 1" xmlns="http://www.w3.org/2000/svg" viewBox="0 0 704 704">
  <defs>
    <style>
      .cls-1 {
        stroke-width: 21px;
      }

      .cls-1, .cls-2, .cls-3 {
        stroke: #dbb459;
        stroke-miterlimit: 10;
      }

      .cls-1, .cls-3 {
        fill: none;
      }

      .cls-2 {
        fill: #fff;
      }

      .cls-2, .cls-3 {
        stroke-width: 20px;
      }
    </style>
  </defs>
  <line class="cls-2" x1="423.52" y1="563.07" x2="423.52" y2="563.07"/>
  <g>
    <g>
      <path class="cls-3" d="m125.95,95.58C188.06,31.87,255.99,10,352,10c188.88,0,342,153.12,342,342s-153.12,342-342,342S10,540.88,10,352c0-70.83,21.53-136.63,58.41-191.22"/>
      <path class="cls-1" d="m362.78,369.89v-85.48c0-1.39,1.13-2.52,2.52-2.52h45.63c1.39,0,2.52,1.13,2.52,2.52v85.48"/>
      <path class="cls-1" d="m127.89,93.84c-30.56,50.54,31.34,47.6,31.34,47.6h307.81c71.73,0,130.94,57.59,131.19,129.32.25,71.89-57.95,130.24-129.78,130.24h-115.78"/>
      <path class="cls-3" d="m362.78,433v155.93c0,1.39-1.13,2.52-2.52,2.52h-105.19c-1.39,0-2.52-1.13-2.52-2.52v-300.96c0-1.39-1.13-2.52-2.52-2.52h-114.34c-1.39,0-2.52-1.13-2.52-2.52v-55.38c0-4.02,3.26-7.28,7.28-7.28h2.76"/>
      <path class="cls-2" d="m413.44,433.3v151.15c0,3.87,3.13,7,7,7h3.07"/>
    </g>
    <path class="cls-3" d="m68.14,161.18l1.25-1.88c1.05-1.58,3.18-2.01,4.76-.96l5.44,3.63"/>
  </g>
</svg>