<?xml version="1.0" encoding="utf-8"?>
<!-- Generator: Adobe Illustrator 26.0.1, SVG Export Plug-In . SVG Version: 6.00 Build 0)  -->
<svg version="1.1" id="Layer_1" xmlns="http://www.w3.org/2000/svg" xmlns:xlink="http://www.w3.org/1999/xlink" x="0px" y="0px"
	 viewBox="0 0 1016.9 257.8" style="enable-background:new 0 0 1016.9 257.8;" xml:space="preserve">
<style type="text/css">
	.st0{fill:none;stroke:#DBB459;stroke-width:20;stroke-miterlimit:10;}
	.st1{fill:#DBB457;}
	.st2{fill:#DBB457;stroke:#DBB457;stroke-width:12;stroke-miterlimit:10;}
</style>
<line class="st0" x1="-1403.9" y1="555.3" x2="-1403.9" y2="555.3"/>
<g>
	<path class="st1" d="M52,90.6h-0.7L17.9,38.5v75.2H0V6.3h17l34.8,56l34.6-56h16.3v107.5H84.9V38.5L52,90.6z"/>
	<path class="st1" d="M168.5,69.5V64c0-2.2-0.4-4.2-1.2-5.9c-0.8-1.7-2-3.1-3.6-4.3c-1.6-1.2-3.5-2.1-5.7-2.7c-2.2-0.6-4.7-1-7.4-1
		c-2.1,0-4.1,0.1-5.9,0.4c-1.9,0.3-3.7,0.7-5.5,1.3c-1.8,0.6-3.5,1.3-5.2,2.2c-1.6,0.9-3.3,1.8-4.9,2.9V40.9
		c1.3-0.9,2.8-1.8,4.6-2.6c1.8-0.8,3.8-1.5,5.9-2.1c2.2-0.6,4.5-1.1,6.9-1.4c2.5-0.4,4.8-0.5,7.2-0.5c5,0,9.5,0.6,13.4,1.9
		c3.9,1.3,7.2,3.2,9.9,5.7c2.7,2.5,4.7,5.5,6.1,9s2.1,7.5,2.1,11.9v50.9h-16.8v-4.4c-0.7,0.7-1.7,1.4-2.9,2
		c-1.2,0.6-2.7,1.3-4.5,1.8s-3.6,1-5.6,1.4c-2,0.4-4,0.5-6.1,0.5c-4,0-7.7-0.6-11.3-1.8c-3.6-1.2-6.6-2.9-9.3-5.1
		c-2.6-2.2-4.7-4.9-6.2-8.1c-1.5-3.1-2.3-6.6-2.3-10.5c0-3.6,0.8-7,2.3-10.1c1.5-3.1,3.6-5.7,6.4-8c2.7-2.2,6-3.9,9.7-5.2
		c3.7-1.2,7.7-1.8,11.9-1.8c1.6,0,3.4,0.1,5.2,0.4c1.8,0.3,3.5,0.6,5.2,1c1.6,0.4,3.1,0.9,4.4,1.5C166.7,68.3,167.7,68.9,168.5,69.5
		z M168.5,93.1v-6.5c-0.5-1.2-1.2-2.2-2.3-3.2c-1-1-2.3-1.8-3.7-2.5c-1.4-0.7-2.9-1.2-4.6-1.6c-1.7-0.4-3.4-0.5-5.2-0.5
		c-2,0-3.9,0.2-5.9,0.7c-1.9,0.5-3.7,1.1-5.2,2c-1.6,0.9-2.8,2-3.7,3.4s-1.3,3-1.3,4.9c0,1.9,0.4,3.5,1.3,5c0.9,1.5,2.1,2.6,3.7,3.5
		c1.6,0.9,3.3,1.5,5.2,2c1.9,0.5,3.9,0.7,5.9,0.7c1.8,0,3.5-0.2,5.2-0.5c1.7-0.4,3.2-0.9,4.6-1.6c1.4-0.7,2.6-1.5,3.7-2.5
		C167.3,95.3,168.1,94.3,168.5,93.1z"/>
	<path class="st1" d="M223.5,0v113.8H206V0H223.5z"/>
	<path class="st1" d="M299.6,36l13.6,55.1L328.3,36h17l-22.6,77.7h-17.5l-13.8-54.1l-13.8,54.1H260L237.5,36H255L270,91.2L283.7,36
		H299.6z"/>
	<path class="st1" d="M401.4,69.5V64c0-2.2-0.4-4.2-1.2-5.9c-0.8-1.7-2-3.1-3.6-4.3c-1.6-1.2-3.5-2.1-5.7-2.7c-2.2-0.6-4.7-1-7.4-1
		c-2.1,0-4.1,0.1-5.9,0.4c-1.9,0.3-3.7,0.7-5.5,1.3c-1.8,0.6-3.5,1.3-5.2,2.2c-1.6,0.9-3.3,1.8-4.9,2.9V40.9
		c1.3-0.9,2.8-1.8,4.6-2.6c1.8-0.8,3.8-1.5,5.9-2.1c2.2-0.6,4.5-1.1,6.9-1.4c2.5-0.4,4.8-0.5,7.2-0.5c5,0,9.5,0.6,13.4,1.9
		c3.9,1.3,7.2,3.2,9.9,5.7c2.7,2.5,4.7,5.5,6.1,9s2.1,7.5,2.1,11.9v50.9h-16.8v-4.4c-0.7,0.7-1.7,1.4-2.9,2
		c-1.2,0.6-2.7,1.3-4.5,1.8s-3.6,1-5.6,1.4c-2,0.4-4,0.5-6.1,0.5c-4,0-7.7-0.6-11.3-1.8c-3.6-1.2-6.6-2.9-9.3-5.1
		c-2.6-2.2-4.7-4.9-6.2-8.1c-1.5-3.1-2.3-6.6-2.3-10.5c0-3.6,0.8-7,2.3-10.1c1.5-3.1,3.6-5.7,6.4-8c2.7-2.2,6-3.9,9.7-5.2
		c3.7-1.2,7.7-1.8,11.9-1.8c1.6,0,3.4,0.1,5.2,0.4c1.8,0.3,3.5,0.6,5.2,1c1.6,0.4,3.1,0.9,4.4,1.5C399.6,68.3,400.6,68.9,401.4,69.5
		z M401.4,93.1v-6.5c-0.5-1.2-1.2-2.2-2.3-3.2c-1-1-2.3-1.8-3.7-2.5c-1.4-0.7-2.9-1.2-4.6-1.6c-1.7-0.4-3.4-0.5-5.2-0.5
		c-2,0-3.9,0.2-5.9,0.7c-1.9,0.5-3.7,1.1-5.2,2c-1.6,0.9-2.8,2-3.7,3.4s-1.3,3-1.3,4.9c0,1.9,0.4,3.5,1.3,5c0.9,1.5,2.1,2.6,3.7,3.5
		c1.6,0.9,3.3,1.5,5.2,2c1.9,0.5,3.9,0.7,5.9,0.7c1.8,0,3.5-0.2,5.2-0.5c1.7-0.4,3.2-0.9,4.6-1.6c1.4-0.7,2.6-1.5,3.7-2.5
		C400.2,95.3,401,94.3,401.4,93.1z"/>
	<path class="st1" d="M482.3,35.7v18c-0.6-0.5-1.3-0.8-2.1-1.1c-0.8-0.3-1.7-0.6-2.6-0.8c-0.9-0.2-1.9-0.4-2.8-0.5
		c-0.9-0.1-1.9-0.2-2.8-0.2c-1.9,0-3.6,0.3-5.2,0.8c-1.6,0.5-3.1,1.3-4.5,2.4s-2.6,2.3-3.6,3.9c-1,1.5-1.7,3.3-2.2,5.4v50.2h-17.5
		V36h17.5v8.1c0.7-1.4,1.7-2.7,2.9-3.9c1.2-1.2,2.6-2.3,4.1-3.1c1.5-0.9,3.1-1.5,4.9-2c1.8-0.5,3.6-0.7,5.4-0.7c0.9,0,1.8,0,2.7,0.1
		c0.9,0.1,1.7,0.2,2.5,0.3c0.8,0.2,1.5,0.3,2,0.4C481.5,35.3,481.9,35.5,482.3,35.7z"/>
	<path class="st1" d="M553.5,108.7c-1.6,1.2-3.4,2.2-5.2,3.1c-1.9,0.9-3.8,1.6-5.9,2.2c-2,0.6-4.2,1-6.5,1.2
		c-2.3,0.2-4.6,0.4-7.1,0.4c-5.6,0-10.8-0.9-15.5-2.8c-4.7-1.9-8.8-4.6-12.2-8.1c-3.4-3.5-6.1-7.7-8-12.6
		c-1.9-4.9-2.8-10.4-2.8-16.4c0-6,0.9-11.5,2.6-16.5s4.2-9.5,7.4-13.2c3.2-3.7,7-6.6,11.4-8.6c4.4-2,9.1-3,14.3-3
		c5.2,0,9.9,0.9,14.1,2.7c4.1,1.8,7.6,4.4,10.3,7.8c2.7,3.4,4.8,7.4,6.2,12.1c1.4,4.7,2.1,9.9,2.1,15.6v6.3h-51.3
		c0.3,3.7,1.2,7,2.4,9.7c1.3,2.7,3,5,5.2,6.7c2.2,1.8,4.6,3.1,7.4,3.9c2.7,0.9,5.7,1.3,8.8,1.3c2.2,0,4.3-0.1,6.1-0.4
		c1.9-0.3,3.7-0.7,5.4-1.3c1.8-0.6,3.5-1.3,5.2-2.2s3.6-2,5.4-3.2V108.7z M526.2,49c-2,0-3.9,0.3-5.8,1c-1.9,0.6-3.6,1.6-5.2,2.9
		c-1.6,1.3-3,3-4.2,5.1c-1.2,2.1-2.1,4.6-2.7,7.5h33.8c-0.1-2.3-0.6-4.5-1.3-6.6c-0.8-2-1.8-3.8-3.1-5.2c-1.3-1.5-3-2.6-4.9-3.4
		C530.9,49.4,528.7,49,526.2,49z"/>
	<path class="st1" d="M667.1,90.6h-0.7L633,38.5v75.2h-17.9V6.3h17l34.8,56l34.6-56h16.3v107.5H700V38.5L667.1,90.6z"/>
	<path class="st1" d="M760.2,12.6c0,1.4-0.3,2.8-0.9,4.1c-0.6,1.3-1.4,2.5-2.4,3.5c-1,1-2.2,1.8-3.5,2.3c-1.3,0.5-2.7,0.8-4.1,0.8
		c-1.4,0-2.8-0.3-4.1-0.8c-1.3-0.5-2.5-1.3-3.5-2.3c-1-1-1.8-2.2-2.4-3.5c-0.6-1.3-0.9-2.7-0.9-4.1s0.3-2.8,0.9-4.1
		c0.6-1.3,1.4-2.5,2.4-3.5c1-1,2.2-1.8,3.5-2.3c1.3-0.5,2.7-0.8,4.1-0.8c1.4,0,2.8,0.3,4.1,0.8C754.8,3.2,756,4,757,5
		c1,1,1.8,2.2,2.4,3.5C759.9,9.8,760.2,11.2,760.2,12.6z M758.1,36v77.7h-17.5V36H758.1z"/>
	<path class="st1" d="M797.3,0v113.8h-17.5V0H797.3z"/>
	<path class="st1" d="M838.6,12.6c0,1.4-0.3,2.8-0.9,4.1c-0.6,1.3-1.4,2.5-2.4,3.5c-1,1-2.2,1.8-3.5,2.3c-1.3,0.5-2.7,0.8-4.1,0.8
		c-1.4,0-2.8-0.3-4.1-0.8c-1.3-0.5-2.5-1.3-3.5-2.3c-1-1-1.8-2.2-2.4-3.5c-0.6-1.3-0.9-2.7-0.9-4.1s0.3-2.8,0.9-4.1
		c0.6-1.3,1.4-2.5,2.4-3.5c1-1,2.2-1.8,3.5-2.3c1.3-0.5,2.7-0.8,4.1-0.8c1.4,0,2.8,0.3,4.1,0.8c1.3,0.5,2.5,1.3,3.5,2.3
		c1,1,1.8,2.2,2.4,3.5C838.3,9.8,838.6,11.2,838.6,12.6z M836.5,36v77.7H819V36H836.5z"/>
	<path class="st1" d="M885,50.6v63.2h-17.5V50.6h-15.8V36h15.8V15.2H885V36h17.5v14.5H885z"/>
	<path class="st1" d="M937.5,12.6c0,1.4-0.3,2.8-0.9,4.1c-0.6,1.3-1.4,2.5-2.4,3.5c-1,1-2.2,1.8-3.5,2.3c-1.3,0.5-2.7,0.8-4.1,0.8
		c-1.4,0-2.8-0.3-4.1-0.8c-1.3-0.5-2.5-1.3-3.5-2.3c-1-1-1.8-2.2-2.4-3.5c-0.6-1.3-0.9-2.7-0.9-4.1s0.3-2.8,0.9-4.1
		C917.2,7.1,918,6,919,5c1-1,2.2-1.8,3.5-2.3c1.3-0.5,2.7-0.8,4.1-0.8c1.4,0,2.8,0.3,4.1,0.8c1.3,0.5,2.5,1.3,3.5,2.3
		c1,1,1.8,2.2,2.4,3.5C937.2,9.8,937.5,11.2,937.5,12.6z M935.4,36v77.7h-17.5V36H935.4z"/>
	<path class="st1" d="M1000.1,69.5V64c0-2.2-0.4-4.2-1.2-5.9c-0.8-1.7-2-3.1-3.6-4.3c-1.6-1.2-3.5-2.1-5.7-2.7c-2.2-0.6-4.7-1-7.4-1
		c-2.1,0-4.1,0.1-6,0.4c-1.9,0.3-3.7,0.7-5.5,1.3c-1.8,0.6-3.5,1.3-5.2,2.2c-1.6,0.9-3.3,1.8-4.9,2.9V40.9c1.3-0.9,2.8-1.8,4.6-2.6
		c1.8-0.8,3.8-1.5,6-2.1c2.2-0.6,4.5-1.1,6.9-1.4c2.4-0.4,4.8-0.5,7.2-0.5c5,0,9.5,0.6,13.4,1.9c3.9,1.3,7.2,3.2,9.9,5.7
		c2.7,2.5,4.7,5.5,6.1,9c1.4,3.5,2.1,7.5,2.1,11.9v50.9h-16.8v-4.4c-0.7,0.7-1.7,1.4-2.9,2c-1.2,0.6-2.7,1.3-4.5,1.8s-3.6,1-5.6,1.4
		c-2,0.4-4,0.5-6.1,0.5c-4,0-7.7-0.6-11.3-1.8c-3.6-1.2-6.6-2.9-9.3-5.1c-2.6-2.2-4.7-4.9-6.2-8.1c-1.5-3.1-2.3-6.6-2.3-10.5
		c0-3.6,0.8-7,2.3-10.1c1.5-3.1,3.6-5.7,6.4-8c2.7-2.2,6-3.9,9.7-5.2c3.7-1.2,7.7-1.8,11.9-1.8c1.6,0,3.4,0.1,5.2,0.4
		c1.8,0.3,3.5,0.6,5.2,1c1.6,0.4,3.1,0.9,4.4,1.5C998.2,68.3,999.3,68.9,1000.1,69.5z M1000.1,93.1v-6.5c-0.5-1.2-1.2-2.2-2.3-3.2
		c-1-1-2.3-1.8-3.7-2.5c-1.4-0.7-2.9-1.2-4.6-1.6c-1.7-0.4-3.4-0.5-5.2-0.5c-2,0-3.9,0.2-5.9,0.7c-1.9,0.5-3.7,1.1-5.2,2
		c-1.6,0.9-2.8,2-3.7,3.4s-1.3,3-1.3,4.9c0,1.9,0.4,3.5,1.3,5c0.9,1.5,2.1,2.6,3.7,3.5c1.6,0.9,3.3,1.5,5.2,2
		c1.9,0.5,3.9,0.7,5.9,0.7c1.8,0,3.5-0.2,5.2-0.5c1.7-0.4,3.2-0.9,4.6-1.6c1.4-0.7,2.6-1.5,3.7-2.5
		C998.9,95.3,999.6,94.3,1000.1,93.1z"/>
</g>
<g>
	<g>
		<path class="st1" d="M386.8,256h-33.4l-39.7-107.5h36.4l20.6,61.1l20.8-61.1h35L386.8,256z"/>
		<path class="st1" d="M463.8,211.2v-1.4c0-2.2-1.3-4.2-3.9-5.9c-2.6-1.8-6.7-2.6-12.4-2.6c-3.4,0-7,0.4-10.9,1.3
			c-3.9,0.9-7.4,2.1-10.4,3.8v-25.5c3.6-1.6,8.1-3,13.3-4.2c5.2-1.2,10.8-1.8,16.8-1.8c12.5,0,22.2,2.8,29.1,8.5
			c6.9,5.7,10.4,14.1,10.4,25.5V256h-32v-3.9c-1.3,1.3-3.6,2.5-7,3.6c-3.4,1.1-7.2,1.7-11.4,1.7c-7.6,0-14.2-2.1-19.9-6.4
			c-5.7-4.3-8.6-10.6-8.6-19c0-7.7,2.9-13.8,8.8-18.3c5.9-4.5,13-6.7,21.4-6.7c3.1,0,6.3,0.4,9.5,1.2
			C460,209.1,462.3,210,463.8,211.2z M463.8,233.1v-3.5c-0.8-1.2-2-2.1-3.4-2.8c-1.5-0.7-3.1-1-5-1c-1.9,0-3.6,0.5-5.2,1.4
			c-1.6,0.9-2.5,2.3-2.5,4.2c0,1.9,0.8,3.3,2.5,4.2c1.6,0.9,3.4,1.4,5.2,1.4c1.9,0,3.5-0.3,5-1C461.9,235.2,463,234.3,463.8,233.1z"
			/>
		<path class="st1" d="M588.4,176.6V256h-33.1v-6.5c-2.2,2.5-5.2,4.4-8.9,6c-3.7,1.5-7.8,2.3-12.2,2.3c-8.5,0-15.3-2.6-20.4-7.9
			c-5.1-5.2-7.6-12.2-7.6-21v-52.3h33.2v43.9c0,2.3,0.6,4.3,1.8,6c1.2,1.7,3.1,2.5,5.7,2.5c1.9,0,3.6-0.6,5.2-1.8
			c1.6-1.2,2.6-2.7,3.1-4.7v-46H588.4z"/>
		<path class="st1" d="M632.5,142.3V256h-33.2V142.3H632.5z"/>
		<path class="st1" d="M685.2,202.1V256h-33.1v-53.9h-12.4v-25.6h12.4v-22.2h33.1v22.2h14.2v25.6H685.2z"/>
	</g>
</g>
<line class="st2" x1="48.4" y1="211" x2="277.1" y2="211"/>
<line class="st2" x1="53.5" y1="157.3" x2="53.5" y2="217.2"/>
<line class="st2" x1="963.3" y1="211" x2="734.6" y2="211"/>
<line class="st2" x1="958.1" y1="157.3" x2="958.1" y2="217.2"/>
</svg>
